HIERARCHY
ROOT Hips
{
	OFFSET 0.000000 0.000000 0.000000
	CHANNELS 6 Xposition Yposition Zposition Zrotation Yrotation Xrotation 
	JOINT LHipJoint
	{
		OFFSET 0.000000 0.000000 0.000000
		CHANNELS 3 Zrotation Yrotation Xrotation
		JOINT LeftUpLeg
		{
			OFFSET 1.363060 -1.794630 0.839290
			CHANNELS 3 Zrotation Yrotation Xrotation
			JOINT LeftLeg
			{
				OFFSET 2.448110 -6.726130 0.000000
				CHANNELS 3 Zrotation Yrotation Xrotation
				JOINT LeftFoot
				{
					OFFSET 2.562200 -7.039590 0.000000
					CHANNELS 3 Zrotation Yrotation Xrotation
					JOINT LeftToeBase
					{
						OFFSET 0.157640 -0.433110 2.322550
						CHANNELS 3 Zrotation Yrotation Xrotation
						End Site
						{
							OFFSET 0.000000 0.000000 0.000000
						}
					}
				}
			}
		}
	}
	JOINT RHipJoint
	{
		OFFSET 0.000000 0.000000 0.000000
		CHANNELS 3 Zrotation Yrotation Xrotation
		JOINT RightUpLeg
		{
			OFFSET -1.305520 -1.794630 0.839290
			CHANNELS 3 Zrotation Yrotation Xrotation
			JOINT RightLeg
			{
				OFFSET -2.542530 -6.985550 0.000000
				CHANNELS 3 Zrotation Yrotation Xrotation
				JOINT RightFoot
				{
					OFFSET -2.568260 -7.056230 0.000000
					CHANNELS 3 Zrotation Yrotation Xrotation
					JOINT RightToeBase
					{
						OFFSET -0.164730 -0.452590 2.363150
						CHANNELS 3 Zrotation Yrotation Xrotation
						End Site
						{
							OFFSET 0.000000 0.000000 0.000000
						}
					}
				}
			}
		}
	}
}
MOTION
Frames: 16
Frame Time: 0.008333
-10.333646 16.566271 0.546524 -13.903451 85.335268 12.953459 -8.528216 -0.235860 1.190473 -16.226647 -9.823947 -50.888606 -2.141020 1.015016 30.788874 1.492955 5.503170 -9.125623 0.104400 0.000001 -7.691400 10.728360 -2.682055 -4.822674 10.362283 -12.169083 -14.963099 1.377157 -3.135489 40.158573 1.051611 18.569544 13.877197 6.215300 0.000001 -81.056300
-10.159230 16.529094 0.569309 -7.546980 85.254769 18.909484 -8.544332 -0.374525 0.986004 -16.650557 -10.015350 -50.684712 -2.010033 1.172422 33.287028 1.637710 6.042118 -10.366147 -0.080800 -0.000000 -6.196300 10.924458 -2.635962 -4.944179 9.217628 -12.612519 -15.892374 1.105974 -3.404943 43.172851 0.897079 18.983700 15.689174 7.004400 0.000000 -80.813599
-9.988343 16.499539 0.587964 -2.746486 85.100114 23.327840 -8.507212 -0.483727 0.755425 -17.121397 -10.047685 -50.298173 -1.917186 1.283214 35.377278 1.789916 6.583867 -11.708898 -0.305800 0.000000 -5.319100 11.146865 -2.553705 -5.030061 8.173602 -12.834622 -16.887926 0.829004 -3.656890 46.165007 0.715229 18.819969 17.469591 7.585800 -0.000000 -79.951000
-9.820395 16.477745 0.601634 0.521513 84.870148 26.238366 -8.446022 -0.555607 0.514449 -17.598086 -9.933342 -49.751691 -1.859322 1.357438 37.044401 1.948854 7.124629 -13.109891 -0.566900 -0.000000 -4.973500 11.360920 -2.433378 -5.083905 7.260948 -12.843772 -17.944078 0.548497 -3.884795 49.111996 0.513962 18.043375 19.109597 7.851500 0.000001 -78.533200
-9.654818 16.463674 0.610206 2.633062 84.587949 28.017937 -8.380525 -0.596313 0.274176 -18.064038 -9.706744 -49.049661 -1.831657 1.398948 38.283319 2.110825 7.658963 -14.504959 -0.854500 0.000000 -5.070800 11.548316 -2.283529 -5.111848 6.473150 -12.677966 -19.057850 0.271256 -4.090885 51.989824 0.298302 16.679612 20.505810 7.736400 -0.000000 -76.696300
-9.490835 16.457119 0.613061 3.669807 84.271762 28.757395 -8.330185 -0.614190 0.043514 -18.474104 -9.389271 -48.227281 -1.826750 1.414184 39.125737 2.267227 8.160665 -15.832127 -1.153800 -0.000000 -5.506300 11.691811 -2.114197 -5.117023 5.837790 -12.354672 -20.223955 0.001592 -4.274427 54.764293 0.072860 14.785694 21.565140 7.221301 -0.000000 -74.616499
-9.327835 16.457745 0.610610 3.936870 83.944321 28.761441 -8.300090 -0.616475 -0.169834 -18.816159 -9.016320 -47.300232 -1.838121 1.405773 39.603284 2.410192 8.612181 -17.028222 -1.446300 -0.000000 -6.156900 11.792027 -1.935149 -5.101935 5.341463 -11.908485 -21.434933 -0.255716 -4.438529 57.403670 -0.157666 12.484000 22.215306 6.356100 -0.000000 -72.472600
-9.165125 16.465141 0.603017 3.544105 83.619692 28.148245 -8.295546 -0.609237 -0.360741 -19.066060 -8.613837 -46.305584 -1.858937 1.378929 39.769650 2.531590 8.992030 -18.048036 -1.712600 -0.000000 -6.884600 11.847962 -1.753307 -5.068776 4.988956 -11.358413 -22.684605 -0.498158 -4.583235 59.873435 -0.386489 9.928249 22.412226 5.238700 0.000000 -70.414199
-9.002242 16.478825 0.591035 2.672365 83.311840 27.100199 -8.314770 -0.595698 -0.524583 -19.220791 -8.210660 -45.269189 -1.883731 1.337491 39.678301 2.626241 9.289639 -18.860956 -1.936800 -0.000000 -7.560800 11.866166 -1.574252 -5.017941 4.763542 -10.727950 -23.964666 -0.723081 -4.709795 62.141608 -0.604610 7.303626 22.142979 4.003500 -0.000000 -68.526100
-8.838858 16.498293 0.575374 1.420229 83.031229 25.721004 -8.355779 -0.578515 -0.659716 -19.277525 -7.828292 -44.223202 -1.907902 1.286200 39.389222 2.691721 9.500965 -19.458529 -2.108701 -0.000000 -8.084501 11.851711 -1.401273 -4.950387 4.654447 -10.033559 -25.268718 -0.928055 -4.818048 64.176893 -0.801393 4.794738 21.432203 2.789500 -0.000000 -66.874800
-8.674792 16.523095 0.556956 -0.101038 82.788680 24.123008 -8.414161 -0.558594 -0.765737 -19.244974 -7.483829 -43.190122 -1.928404 1.228832 38.955871 2.728902 9.631526 -19.848733 -2.225300 0.000000 -8.402100 11.811474 -1.236650 -4.866315 4.641879 -9.292955 -26.588316 -1.109935 -4.908145 65.952332 -0.965563 2.569697 20.335380 1.717600 -0.000000 -65.463900
-8.510059 16.552739 0.536670 -1.807547 82.593990 22.390172 -8.485048 -0.536476 -0.844851 -19.137067 -7.187452 -42.186194 -1.943588 1.168455 38.423896 2.741303 9.693583 -20.054528 -2.290300 -0.000000 -8.508000 11.751372 -1.081121 -4.766591 4.704910 -8.521922 -27.913659 -1.264718 -4.979886 67.442464 -1.087225 0.757210 18.939805 0.870100 -0.000000 -64.337000
-8.344723 16.586799 0.515315 -3.625073 82.455840 20.592970 -8.563487 -0.511858 -0.900586 -18.972352 -6.942315 -41.217610 -1.953359 1.107042 37.826015 2.734128 9.703295 -20.108394 -2.312100 0.000000 -8.434500 11.676726 -0.934547 -4.652938 4.820068 -7.737993 -29.234851 -1.388305 -5.033877 68.632471 -1.157955 -0.558269 17.333932 0.283900 0.000000 -63.346600
-8.179031 16.624859 0.493560 -5.503601 82.382202 18.775577 -8.645142 -0.484734 -0.938116 -18.770377 -6.745177 -40.281892 -1.958642 1.045405 37.182289 2.713127 9.677591 -20.046569 -2.301500 -0.000000 -8.239200 11.591288 -0.795767 -4.527461 4.965198 -6.956555 -30.538856 -1.476515 -5.070174 69.506759 -1.175047 -1.352711 15.634249 -0.050099 -0.000000 -62.589400
-8.013166 16.666494 0.471860 -7.409873 82.378269 16.962687 -8.726582 -0.454839 -0.962775 -18.549758 -6.588359 -39.367926 -1.961080 0.983322 36.499575 2.683632 9.631950 -19.902863 -2.269000 -0.000000 -7.992900 11.497789 -0.663121 -4.393321 5.120571 -6.194348 -31.814197 -1.526615 -5.089613 70.061041 -1.140231 -1.651338 13.942561 -0.172800 0.000000 -62.020401
-7.847330 16.711295 0.450457 -9.336644 82.445777 15.152089 -8.805632 -0.421969 -0.979700 -18.325050 -6.461097 -38.460254 -1.962553 0.919970 35.774422 2.649486 9.577102 -19.703332 -2.222900 0.000000 -7.768300 11.397863 -0.534630 -4.254874 5.271550 -5.468470 -33.050849 -1.537924 -5.093552 70.301781 -1.060156 -1.522956 12.337124 -0.142400 -0.000000 -61.459000
